<?xml version="1.0" encoding="UTF-8"?>
<svg width="700pt" height="700pt" version="1.1" viewBox="0 0 700 700" xmlns="http://www.w3.org/2000/svg">
 <path d="m376.58 441.64c-1.5898 9.4297-2.9297 18.34-4.6719 27.168-0.59375 3.2695-1.7734 6.4023-3.4844 9.2461-1.293 2.4062-3.8281 3.8828-6.5586 3.8125-2.7305-0.066407-5.1875-1.668-6.3594-4.1328-2.6016-5.1992-4.7578-10.609-6.4453-16.172-1.8867-5.8008-3.4414-11.707-4.6641-17.684-0.41016-4.0664-3.1875-7.5078-7.082-8.7578l-7.0117 9.8945c-13.254 19.684-28.117 38.242-44.426 55.48-3 3.0703-6.3984 5.7266-10.109 7.8867-2.7188 2.0547-6.3945 2.3008-9.3594 0.625-2.9648-1.6797-4.6523-4.957-4.2891-8.3438 0.11719-4.8398 0.73438-9.6562 1.8477-14.367 0.77344-3.375 1.7227-6.7109 2.8398-9.9883 1.9531-6.543 1.9609-6.5391-3.6094-11.133-3.8555 5.0586-7.6055 10.191-11.609 15.121-1.5508 1.9492-3.4336 3.6055-5.5586 4.9023-1.7656 1.2305-4.0742 1.3633-5.9727 0.34375-1.8945-1.0195-3.0547-3.0195-3-5.1719-0.11719-2.625 0.27734-5.25 1.168-7.7188 4.1992-11.449 8.6484-22.805 13.004-34.199v-0.003906c0.60938-1.3711 0.86719-2.8711 0.75-4.3672-1.582 1.1953-3.1367 2.4375-4.7539 3.5742v0.003906c-2.4297 1.8398-4.9648 3.543-7.5898 5.0977-2.7109 2.0469-6.332 2.4102-9.3945 0.94531-3.0664-1.4648-5.0547-4.5156-5.1641-7.9062-0.25-5.6484-0.015625-11.309 0.70312-16.918 0.050781-0.94141 0.28906-1.8711 0.51172-3.2461-4.1953-0.75-8.25-1.3438-12.246-2.2031h0.003906c-13.012-1.9688-24.965-8.3125-33.891-17.98-5.2148-4.918-7.9609-11.906-7.4922-19.059 0.46484-7.1562 4.0977-13.727 9.9102-17.926 8.8359-7.2422 19.191-12.406 30.297-15.102 2.8516-0.54297 5.1172-2.707 5.7891-5.5312 2.2383-7.1172 5.1289-14.027 8.0117-21.727-3.0234-1.418-6.418-2.8438-9.6562-4.5547-12.262-6.4648-24.543-12.895-36.664-19.609-4.2734-2.3672-8.6875-5.4883-7.3633-11.328 1.3164-5.8125 6.6836-6.7539 11.504-7.1484 5.9102-0.48438 11.891-0.11328 19.016-0.11328l-2.9258-4.4453c-3.8438-6.2539-8.0898-12.305-11.402-18.832v0.003906c-2.8984-4.125-3.375-9.4844-1.25-14.055 2.125-4.5703 6.5273-7.6602 11.547-8.1016 5.0352-0.95703 10.121-1.6133 15.234-1.9727-1.2891-3.4492-2.6484-6.8789-3.8633-10.348-2.1953-6.2734-4.5547-12.516-6.332-18.91-0.45703-2.9688-0.60156-5.9727-0.43359-8.9688-0.027344-1.3398-0.24219-2.668-0.63281-3.9492-2.4727-7.0664-5.1758-14.051-7.5547-21.145-3.4414-10.262 0.44922-15.051 11.312-13.723l0.57812-3.043c0.29688-2.0938 1.4492-3.9688 3.1797-5.1836 1.7305-1.2148 3.8867-1.6562 5.957-1.2266 2.1094 0.5625 4.3594 0.011719 5.9766-1.4531 1.9922-1.0547 4.1445-1.7734 6.3711-2.1289l0.28125-0.84375c-0.69531-12.469 8.8477-17.684 19.906-15.566l0.003906-0.003907c9.1875 2.2344 17.875 6.1836 25.602 11.641l3.7148 2.3516c0.85156-2.2539 1.8242-4.4609 2.9102-6.6094 1.8867-3.5156 4.7539-6.4062 8.2539-8.3203 3.5-1.918 7.4805-2.7773 11.461-2.4727 2.5977 0.33203 5.1055-1.0742 6.1719-3.4648 4.0859-7.4727 10.023-13.766 17.25-18.27 4.8594-3.3164 10.633-5.0391 16.516-4.9375 5.8828 0.10547 11.59 2.0312 16.328 5.5156 1.6875 1.6445 4.2734 1.9375 6.2852 0.71094 4.0625-2.0156 8.9922-0.62891 11.406 3.2109 1.8047 2.3828 3.1914 5.082 5.1914 8.332 3.2148-6.6367 6.1367-12.824 9.1836-18.945 5.2656-10.551 10.504-21.113 15.945-31.57 2.9805-5.7227 6.3477-7.582 9.9062-6.1172 3.7891 1.5586 4.543 4.6914 3.1367 11.219-5.3711 24.812-10.691 49.637-15.961 74.473-0.16797 0.78516-0.13672 1.6055-0.29297 3.7188 3.8984-4.5938 7.082-8.2539 10.176-11.996 2.9648-3.5898 6.0625-6.4258 11.375-4.9453 0.94141 0.26172 2.7578-1.375 3.6875-2.5273 9.3125-11.559 18.516-23.203 27.777-34.805 1.2969-1.625 2.668-3.2031 4.1172-4.6914v-0.003906c2.2734-3 6.3789-3.9258 9.7188-2.1953 2.9805 2.0781 4.0234 6.0039 2.4648 9.2891-3.0586 10.066-6.1484 20.117-9.2773 30.336 3.5703-0.36719 7.1758-0.03125 10.621 0.98438 5.7812 3.3008 9.125 0.67187 13.223-2.8242 5.5781-4.7578 11.598-9.0234 17.613-13.23 3.0078-2.9609 7.6992-3.3516 11.156-0.9375 3.375 2.5469 4.5117 7.1055 2.7305 10.941-3.5352 10.359-7.5977 20.535-12.164 30.484-14.336 29.43-29.199 58.605-43.852 87.883l-2.1289 4.4688 3.5586-1.3906c11.762-5.2891 23.449-10.734 35.293-15.82 5.4727-2.3516 8.9805-1.0625 10.977 3.125v-0.003906c0.88281 1.5352 1.1016 3.3672 0.60156 5.0664-0.49609 1.6992-1.668 3.125-3.2422 3.9414-4.4766 3.1797-8.7344 6.6602-12.746 10.414 1.7461-0.36328 3.4883-0.77344 5.2422-1.0742 2.0469-0.35156 4.1016-0.72656 6.168-0.88672h0.003906c4.4961-0.88672 9.0938 0.94141 11.754 4.6719 2.5391 3.8945 2.2461 8.9961-0.72656 12.574-6.8203 8.8633-14 17.484-21.523 25.762-4.5938 5.0586-10.078 9.2969-15.938 14.613 4.3594 0.33594 7.75 0.70703 11.152 0.85156 9.0117 0.37891 18.031 0.53125 27.035 1.0664l-0.007812-0.003906c2.4648 0.16797 4.8555 0.91797 6.9805 2.1836 2.7031 1.4844 3.8281 4.7852 2.5977 7.6172-1.0625 2.8672-4.0781 4.5078-7.0664 3.8477-10.922-0.91406-21.832-2.0352-32.77-2.6641-7.4688-0.42969-14.984-0.35938-22.461-0.089844v0.003906c-2.7539 0.59766-5.4141 1.5625-7.9062 2.8711l6.0977 3.9336c10.457 6.5625 20.953 13.059 31.359 19.707 2.3398 1.4961 4.4961 3.2578 6.4297 5.2539 2.9492 2.1289 4.25 5.875 3.2656 9.375-0.98828 3.5-4.0547 6.0117-7.6797 6.293-3.6797 0.66016-7.3984 1.0742-11.133 1.2461l-3.8438 0.30469c1.4922 2.5742 2.8711 4.7188 4.0312 6.9766 3.6641 7.1094 1.5234 11.555-6.2969 13.254l-1.1953 0.26172c-4.1875 4.6641-9.2812 4.0312-15.113 2.8594l2.0703 3.6367c6.5625 10.945 13.375 21.75 19.555 32.906l0.003906 0.003906c1.4883 3.7891 2.5156 7.7422 3.0586 11.777 0.38672 1.5938 0.91406 3.1523 1.5781 4.6523 1.9727 4.2773 4.4727 8.3594 6.0117 12.777 2.4023 6.8906-1.5078 11.512-8.7539 11.125-1.4453-0.20312-2.9219 0.066406-4.2031 0.76562-2.75 2.3164-6.6523 2.6758-9.7773 0.89844-5.5703-2.7773-10.941-5.9531-16.48-8.8047-1.1406-0.58984-3.2383-1.1602-3.8906-0.58984-11.125 8.5391-25.812 10.867-39.031 6.1875-11.887-2.9219-23.195-7.8359-33.441-14.527zm70.664-206.03c0.60938-0.71094 1.1602-1.4727 1.6406-2.2773 5.7109-12.453 11.73-24.785 16.996-37.426 6.0742-13.402 10.066-27.656 11.84-42.262 0.17969-4.4453 0.11328-8.9023-0.19531-13.34l-1.4297-0.42969v-0.003906c-8.1562 7.0078-15.93 14.449-23.289 22.289-2.1484 4.2344-3.0898 8.9766-2.7188 13.711 0.33594 4.3047 0.39844 8.625 0.18359 12.938-1.5859 5.293-3.5391 10.473-5.8438 15.496-0.74219 1.6016-1.1016 3.3555-1.0547 5.1211 1.1016 8.5 2.4805 16.965 3.8711 26.184zm-209.88 143.05c-2.6992 1.332-4.5039 2.3516-6.4023 3.1367-3.043 1.6953-6.7031 1.8672-9.8906 0.46094s-5.5312-4.2266-6.3281-7.6172c-0.73438-2.5195-1.1172-5.1289-1.1406-7.7539-0.18359-3.8086-0.046875-7.6445-0.046875-12.668h-0.003906c-6.8164 3.1172-13.453 6.6094-19.883 10.461-11.773 7.8984-12.191 16.426-1.8125 26.148 9.9336 8.1523 22.258 12.844 35.102 13.359 1.0039-0.015625 1.9375-0.53516 2.4766-1.3828 2.6367-7.6836 5.1016-15.43 7.9297-24.145zm2.7812 26.68c9.1992-0.62891 17.055-1.0742 24.883-1.8164 0.98438-0.09375 2.1094-1.6016 2.6758-2.707 2.9023-5.6719 5.5898-11.449 8.4531-17.141v-0.003906c1.9766-3.6094 2.9219-7.6953 2.7305-11.809 0.35156-6.8594 2.5898-13.484 6.4688-19.152l-8.5-6.7891c-3.7539 3.8711-7.75 7.5039-11.961 10.875-8.1211 5.8789-13.945 14.402-16.473 24.105-2.332 7.7852-5.1953 15.41-8.2773 24.438zm265.32-152.97c-1.1758-0.125-2.3633-0.11328-3.5391 0.035156-14.469 4.3164-29.227 7.9141-43.242 13.395-6.5742 2.5703-14.461 5.8945-14.879 15.871-0.32812 7.8633 2.6758 12.504 10.441 13.172 1.5039 0.25781 3.0234 0.39844 4.5508 0.42188 1.8789 0.11328 3.7539-0.27344 5.4336-1.125 13.941-10.34 26.523-22.398 37.441-35.891 1.3047-1.6953 2.3398-3.6016 3.793-5.8789zm-160.13-113.98 0.56641-0.52344c2.8555-9.8281 5.7227-19.656 8.4727-29.516 0.14844-0.89453-0.13281-1.8086-0.76172-2.4648-4.6211-4.4141-11.246-6.0312-17.383-4.2422-8.375 3.1211-15.301 9.2344-19.438 17.16zm-106.33 139.53c-6.1875-12.953-11.996-25.188-17.914-37.371l0.003906 0.003906c-0.5-0.95312-1.3984-1.625-2.4531-1.832-5.2305-0.21484-10.469-0.050781-15.68 0.49219-4.332 0.61328-5.1172 2.2617-2.832 6.0469 5.7109 9.4609 11.863 18.668 17.953 27.902h0.003906c0.75781 0.97266 1.8438 1.6406 3.0586 1.8672 5.707 1.0391 11.445 1.875 17.859 2.8906zm35.125 216.76 1.1211 0.49609h-0.003906c16.473-16.434 31.191-34.531 43.922-54.004-1.2227 0.59766-2.3477 1.3828-3.3281 2.3281-7.1797 6.9141-15.047 13.078-23.484 18.387-8.9297 4.1836-15.012 12.738-16.027 22.543-0.57031 3.4453-1.4531 6.8359-2.1953 10.254zm-18.039-340.34c2.6602-8.2422 7.9102-9.7656 14.469-4.4922l9.4062 7.6289c-0.24219-6.2227-0.78516-11.273-6.6758-14.113-3.8438-1.8555-7.1484-4.8281-11.004-6.6367-4.9492-2.4258-10.121-4.3711-15.441-5.8125-4.5703-1.1484-5.6094 0.51562-5.0625 5.1602 1.2227 8.1836 6.6562 15.121 14.309 18.266zm30.465 296.71 1.0352 0.67187c14.375-9.6953 27.18-21.531 37.969-35.098-5.1758-1.8789-6.3438-6.082-7.2383-10.688-1.6211 1.8008-3.0664 3.7539-4.3203 5.8242-6.7383 12.406-15.066 23.875-24.777 34.121-1.168 1.5625-2.0742 3.3086-2.6719 5.168zm-36.461-104.08c-7.5703 1.4219-14.867 2.7656-22.145 4.2109-0.65625 0.22266-1.1641 0.74219-1.3711 1.3984-1.6914 6.0898-1.9023 12.492-0.62109 18.684 9.8711-6.5859 21.602-10.102 24.137-24.293zm-20.262-8.0234c8.2891-1.1953 15.359-2.4531 22.488-3.1445 3.7734-0.36328 5.3672-2.0938 5.8594-6.0586l-20.973-9.0508zm-36.027-54.461-0.59375 1.9023 37.633 19.461 0.61328-1.0469c-5.4062-5.8906-10.793-11.801-16.25-17.645v0.003907c-0.65625-0.70703-1.5391-1.1719-2.4922-1.3164-6.3047-0.52734-12.605-0.92187-18.91-1.3594zm85.297-23.117-25.473-12.457-0.73828 1.0664 9.6133 21.324zm210.97-108.94 14.461-34.203-1.2617-0.82031c-5.2305 4.2344-10.488 8.4297-15.652 12.746l0.003906-0.007812c-0.64844 0.66406-0.97266 1.5781-0.89062 2.5 0.96484 6.2266 2.0781 12.43 3.3398 19.785zm-100.65-10.418 0.94141 0.019531 8.9727-45.035-1.0469-0.36719c-4.1953 8.8125-8.3828 17.625-12.566 26.445-0.23047 0.50391-0.29687 1.0703-0.19531 1.6172 1.2695 5.7852 2.5859 11.551 3.8945 17.32zm-77.691-12.77c-2.6328 4.8086-2.6172 4.7852 0.47656 6.9336h-0.003907c1.3906 0.90625 2.7109 1.918 3.9492 3.0234 5.2812 5.0117 10.5 10.094 16.043 15.445l5.3945-8.0273zm3.8086 62.996 0.375-0.30078c4.2734-9.8047 4.2852-9.8203-3.5742-16.852-3.293-2.9453-6.6484-5.8242-10.383-9.082-0.41797 10.527 4.7422 20.496 13.578 26.234zm110.64 250.49 1.4727-1.7773-23.133-21.727-5.375 4.7812c8.3945 7.0898 17.445 13.359 27.035 18.723zm-102.58-272.21c2.0391-2.5742 2.4219-4.4414 0.27734-6.582-4.9688-4.957-9.7578-10.094-14.707-15.07-1.0938-0.90625-2.2734-1.7031-3.5234-2.3711-2.4453 4.0625-2.3516 6.9609 1.5156 9.5547 2.8594 2.1602 5.5742 4.5117 8.1211 7.0352zm162.95 176.46 0.51172-1.2148-25.961-16.867-0.71484 0.93359c3.6953 5.1602 7.3516 10.355 11.137 15.457 0.64844 0.87109 1.6133 1.4531 2.6875 1.6211 4.1133 0.17188 8.2305 0.070312 12.34 0.070312zm-126.1 112.97 1.3242-0.10547-0.003906-0.003907c1.957-8.832 2.9375-17.855 2.9219-26.906-3.0898 1.5117-6.0039 3.3477-8.7031 5.4805-0.60938 0.69141-0.86328 1.6289-0.68359 2.5352 1.6328 6.3555 3.4102 12.672 5.1445 19zm-124.71-29.871 1.375 0.70703 19.281-14.887c-6.2812 0-11.496-0.082031-16.703 0.085938h-0.003907c-1.0039 0.22266-1.8242 0.93359-2.1875 1.8945-0.73828 4.0352-1.2031 8.125-1.7617 12.195zm51.086-160.07-17.16 9.9531c3 2.5469 5.1406 4.4727 7.3984 6.25 1.7852 1.4023 3.4258 1.5664 4.6641-0.88281 1.6094-3.1953 3.5742-6.2227 5.0039-9.4883v-0.003906c0.33594-1.9258 0.36719-3.8906 0.09375-5.8281zm148.85-40.531-1.3594-0.13281c-1.7656 5.4883-3.3281 11.055-5.375 16.438-1.5 3.4961-0.63281 7.5586 2.1641 10.141 1.7188-1.75 4.6719-3.3516 4.7773-5.1172 0.41016-7.0781-0.0625-14.215-0.20703-21.328zm-76.746-96.914c2.2383 0.36719 3.832 0.75781 5.4375 0.85156 1.332 0.078125 3.4609 0.28125 3.875-0.39844l-0.003906 0.003906c1.207-1.6094 1.7539-3.6172 1.5234-5.6133-1.5195-3.2812-3.3242-6.4258-5.3906-9.3945l-1.1133 0.21094zm85.723 211.35c-3.4609-4.5273-6.3711-8.5508-9.5664-12.332-0.66797-0.78516-3.0352-1.3242-3.4961-0.85938-1.0781 1.0859-2.3359 3.0859-2 4.2969 1.4609 2.7148 3.6367 4.9805 6.2891 6.5469 2.6562 1.5703 5.6914 2.3828 8.7734 2.3516zm-113.95-138.33 5.418-7.2539-7.2227-8.9375c-5.332 13.312-4.6094 11.828 1.8047 16.191zm-79.883 93.125-4.1914 6.0156 15.344 14.242 0.78125-0.78906zm127.46 122.64c-1.457 4.2266-0.67188 6.8047 2.9258 8.4688 2.5039 1.1602 4.7617 2.8359 7.2109 4.125 2.5391 1.3438 5.1758 2.4961 7.7734 3.7305l0.53516-1.0273zm91.672-290.81c-10.039-0.019532-13.973 2.625-12.945 11.809zm-48.609 193.65v-0.003906c0.80078-1.7031 1.4805-3.4609 2.0352-5.2617 0.6875-3.1484-3.0703-6.9453-5.9727-5.8633-1 0.37109-2.3203 2.8008-1.9727 3.3906 1.7969 2.707 3.7773 5.293 5.9219 7.7344zm-59.938-131.32c2.8008-3.6875 5.4531-7.0273 7.8984-10.512 0.46094-0.65234 0.10156-1.8789 0.125-2.8398-0.83594 0.21094-1.8867 0.17969-2.4727 0.68359-1.7734 1.5273-3.2695 3.3711-5.0508 4.8867-1.2812 0.83984-2.0938 2.2344-2.1914 3.7656s0.52734 3.0156 1.6914 4.0156zm-112.8 33.75c-0.078125-5.3398-3.8438-9.9141-9.0703-11.012 1.5352 4.9023 2.3086 10.16 9.0703 11.012zm136.86 181.52 0.09375 2.0664c2.6758 0.82422 5.332 1.7578 8.0625 2.3398l1.582-2.3984c-1.332-1.5664-2.7812-3.6172-4.5508-4.043-1.4805-0.36328-3.4414 1.2773-5.1875 2.0312zm-146.88-111.8 4.3984-5.9375-10.371-1.8359-0.35547 1.0078zm214.06-189.14-7.1523 9.0703c6.2148 0.71094 6.9961-0.23828 7.1523-9.0703zm-90.07 38.582-0.95703-1.5664-5.9102 2.7266 3.6484 6.0938zm52.77 108.02c-6.5898 5.9141-7.543 8.7539-3.8086 11.113zm-200.2-72.098c-0.80469-9.0977-3.0938-15.406-5.9648-17.078zm156.83-27.086-1.1484-0.28906-2.6758 7.5195 1.3047 0.69531 4.7109-3.7695zm-80.191-19.938c2.1211-2.4258 7.4805-1.1875 7.4609-6.5273-3.7812-0.039063-6.9922 2.7695-7.4609 6.5234zm164.98 276.53 7.207 4.6289 0.72656-0.80078-4.2266-6.9531zm-165.38-95.871 2.5742-3.4727-7.9883-4.8906-0.53516 0.71875zm186.77 127.14c-1.0195-3.8008-1.2852-8.4648-7.4531-8.668zm-61.578-38.652 7.8672 7.4102c-3.4492-7.7422-4.0586-8.3711-7.8672-7.4102zm-145.77-183.3c2.0938-3.1797 1.0781-4.8516-3.9102-7.1562z"/>
</svg>
